<?xml version="1.0" encoding="utf-8"?>
<!-- Generator: Adobe Illustrator 19.0.0, SVG Export Plug-In . SVG Version: 6.00 Build 0)  -->
<svg version="1.1" id="Layer_1" xmlns="http://www.w3.org/2000/svg" xmlns:xlink="http://www.w3.org/1999/xlink" x="0px" y="0px"
	 viewBox="30 104 610 273" style="enable-background:new 30 104 610 273;" xml:space="preserve">
<style type="text/css">
	.st0{fill:#B6E0F4;}
	.st1{fill:#E4F2FB;}
	.st2{fill:#D0D8DC;}
	.st3{fill:#ECEFF0;}
	.st4{fill:#FBB040;}
	.st5{fill:#FFFFFF;}
	.st6{fill:#F4C04D;}
	.st7{fill:none;stroke:#71BE72;stroke-width:1.82;stroke-miterlimit:10;}
	.st8{fill:none;stroke:#F5844E;stroke-width:0.91;stroke-miterlimit:10;}
	.st9{fill:#F5844E;}
	.st10{fill:#95C8EC;}
	.st11{fill:#57A7DB;}
	.st12{fill:#99CF8C;}
	.st13{fill:#B0BEC5;}
	.st14{fill:#0071BC;}
	.st15{fill:#CCCBCA;}
	.st16{fill:#FFFFFF;stroke:#D0D8DC;stroke-width:0.81;stroke-miterlimit:10;}
	.st17{fill:#71BE72;}
	.st18{fill:#54B958;}
	.st19{opacity:0.2;}
	.st20{fill:#78909C;}
	.st21{fill:#73C073;}
	.st22{opacity:0.2;fill:#F7F7F7;enable-background:new    ;}
	.st23{fill:#F7F7F7;}
	.st24{fill:#E0594B;}
	.st25{fill:#E8AE38;}
	.st26{fill:#E15B5F;}
	.st27{fill:#3F535C;}
	.st28{fill:#273747;}
	.st29{fill:#546E7A;}
	.st30{fill:#69AF69;}
	.st31{fill:#303A46;stroke:#838990;stroke-width:0.19;stroke-miterlimit:10;}
	.st32{fill:#6DB4E3;}
	.st33{fill:#FFFFFF;stroke:#D0D8DC;stroke-width:0.67;stroke-miterlimit:10;}
	.st34{fill:#303A46;stroke:#838990;stroke-width:0.14;stroke-miterlimit:10;}
</style>
<title>cybersecurity-services</title>
<g>
	<g id="Layer_3">
		<g id="_Group_">
			<g id="_Group_2">
				<g id="_Group_3">
					<g id="_Group_4">
						<g id="_Group_5">
							<g id="_Group_6">
								<g id="_Group_7">
									<g id="_Group_8">
										<g id="_Group_9">
											<g id="_Group_10">
												<g id="_Group_11">
													<g id="_Group_12">
														<g id="_Group_13">
															<g id="_Group_14">
																<path id="_Compound_Path_" class="st0" d="M98.6,276.9l5.1-2.3c0.1-2.4-0.2-4.8-0.7-7.1l-5.5-1
																	c-0.5-1.5-1.2-3-1.9-4.4l2.8-5.1c-1.3-2-2.8-3.7-4.5-5.3l-5,2.7c-1.2-1-2.5-1.8-3.9-2.4l-0.5-6
																	c-1-0.4-2.1-0.7-3.2-0.9c-1.1-0.2-2.2-0.4-3.3-0.5l-2.6,5.2c-1.5,0-3,0.2-4.5,0.6l-3.6-4.5c-2.1,0.7-4.2,1.7-6,3
																	l0.8,6c-1.2,1-2.3,2.1-3.4,3.2l-5.4-1.3c-1.3,1.9-2.4,4-3.3,6.3l3.9,4.3c-0.2,0.8-0.4,1.6-0.6,2.3s-0.3,1.6-0.4,2.4
																	l-5.1,2.3c-0.1,2.4,0.2,4.8,0.7,7.1l5.5,1c0.5,1.5,1.2,3,1.9,4.4L53,292c1.3,2,2.9,3.8,4.6,5.3l5-2.6
																	c1.2,0.9,2.6,1.7,3.9,2.4l0.4,6c1,0.4,2.1,0.7,3.2,0.9c1.1,0.2,2.2,0.4,3.3,0.5l2.6-5.2c1.5,0,3-0.2,4.5-0.6
																	l3.6,4.5c2.1-0.7,4.2-1.7,6-3l-0.8-5.9c1.2-1,2.3-2.1,3.4-3.2l5.4,1.3c1.3-1.9,2.4-4,3.3-6.3l-3.9-4.3
																	c0.2-0.8,0.4-1.6,0.6-2.3C98.2,278.6,98.4,277.8,98.6,276.9z M88.4,277.4C87,285,80,289.9,73,288.4
																	c-7.1-1.6-11.7-9-10.2-16.6c1.4-7.6,8.4-12.5,15.5-11c0,0,0,0,0,0C85.3,262.4,89.9,269.8,88.4,277.4z"/>
															</g>
														</g>
													</g>
												</g>
											</g>
										</g>
									</g>
								</g>
							</g>
						</g>
					</g>
					<g id="_Group_15">
						<g id="_Group_16">
							<path id="_Compound_Path_2" class="st1" d="M91.8,278.2c1.9-9.6-3.9-19-12.8-21c-8.9-2-17.7,4.2-19.5,13.8
								c-1.9,9.6,3.9,19,12.8,21c0,0,0.1,0,0.1,0C81.2,293.9,89.9,287.7,91.8,278.2z M83.9,276.4c-0.9,4.9-5.4,8.1-10,7.1
								c-4.6-1-7.6-5.8-6.6-10.7c0.9-4.9,5.4-8.1,10-7.1C81.9,266.7,84.8,271.5,83.9,276.4L83.9,276.4z"/>
						</g>
					</g>
				</g>
				<g id="_Group_17">
					<g id="_Group_18">
						<g id="_Group_19">
							<g id="_Group_20">
								<g id="_Group_21">
									<g id="_Group_22">
										<g id="_Group_23">
											<g id="_Group_24">
												<g id="_Group_25">
													<g id="_Group_26">
														<g id="_Group_27">
															<g id="_Group_28">
																<path id="_Compound_Path_3" class="st2" d="M132.9,248.7l3.8-1.7c0-1.8-0.2-3.5-0.6-5.2l-4-0.8
																	c-0.3-1.1-0.8-2.2-1.4-3.2l2.1-3.8c-1-1.4-2.1-2.7-3.4-3.9l-3.7,2c-0.9-0.7-1.9-1.3-2.9-1.8l-0.4-4.4
																	c-0.8-0.3-1.6-0.5-2.4-0.7c-0.8-0.2-1.6-0.3-2.5-0.4l-1.9,3.9c-1.1,0-2.3,0.1-3.4,0.4l-2.7-3.4
																	c-1.6,0.5-3.1,1.2-4.5,2.2l0.6,4.4c-0.9,0.7-1.7,1.5-2.5,2.4l-4-1c-0.9,1.4-1.7,3-2.4,4.6l2.8,3.2
																	c-0.2,0.6-0.3,1.1-0.4,1.7c-0.1,0.6-0.1,1.2-0.2,1.8l-3.8,1.7c0,1.8,0.2,3.5,0.6,5.2l4.1,0.8
																	c0.3,1.1,0.8,2.2,1.4,3.2l-2.1,3.8c1,1.4,2.1,2.7,3.3,3.9l3.7-2c0.9,0.7,1.9,1.3,2.9,1.8l0.4,4.4
																	c0.8,0.3,1.6,0.5,2.4,0.7c0.8,0.2,1.6,0.3,2.5,0.4l1.9-3.9c1.1,0,2.3-0.1,3.4-0.4l2.7,3.4c1.6-0.5,3.1-1.2,4.5-2.2
																	l-0.6-4.4c0.9-0.7,1.7-1.5,2.5-2.4l4,1c1-1.4,1.8-3,2.4-4.6l-2.8-3.2c0.2-0.6,0.3-1.1,0.4-1.7
																	C132.8,250,132.9,249.4,132.9,248.7z M125.6,249c-1.1,5.6-6.2,9.3-11.4,8.2c-5.3-1.1-8.7-6.6-7.6-12.3
																	c1.1-5.6,6.2-9.3,11.4-8.2c0,0,0,0,0,0C123.2,237.8,126.6,243.3,125.6,249z"/>
															</g>
														</g>
													</g>
												</g>
											</g>
										</g>
									</g>
								</g>
							</g>
						</g>
					</g>
					<g id="_Group_29">
						<g id="_Group_30">
							<g id="_Group_31">
								<path id="_Compound_Path_4" class="st3" d="M128.1,249.5c1.3-7.1-2.9-14.1-9.5-15.5c-6.6-1.4-13.1,3.1-14.4,10.3
									s2.9,14.1,9.5,15.5c0,0,0,0,0,0C120.2,261.2,126.7,256.6,128.1,249.5z M122.2,248.3c-0.7,3.7-4,6-7.4,5.2s-5.6-4.3-4.9-8
									c0.7-3.6,4-6,7.4-5.2C120.7,241,122.8,244.6,122.2,248.3C122.2,248.2,122.1,248.2,122.2,248.3L122.2,248.3z"/>
							</g>
						</g>
					</g>
				</g>
			</g>
		</g>
		<path class="st4" d="M110.9,289.5c-2,0.1-3.8,1.1-5,2.8l-7,10.5h-44c-1.7,0-3.2,1.5-3.2,3.4v38c0,1.4,1.3,2.5,3,2.5h90.4
			c1.7,0,3-1.1,3-2.5V292c0-1.4-1.3-2.5-3-2.5H110.9z"/>
		<rect x="71.6" y="309.9" class="st1" width="77.1" height="27.3"/>
		<path class="st5" d="M59.2,309.9v27.4h84v-27.4H59.2z"/>
		<path class="st6" d="M84.5,314.4c2,0.1,3.8,1.1,5,2.8l7,10.5H145c1.7,0,3.2,1.5,3.2,3.4v42.2c0,1.4-1.3,2.5-3,2.5H54.7
			c-1.7,0-3-1.1-3-2.5v-56.4c0-1.4,1.3-2.5,3-2.5H84.5z"/>
		<g>
			<polygon class="st1" points="88.8,214.8 80.7,221.5 80.7,214.5 55.5,214.5 55.5,201.7 80.7,201.7 80.7,194.7 88.8,201.4 
				96.9,208.1 			"/>
		</g>
		<polyline class="st7" points="583.3,366.1 437,366.1 437.2,212.9 585.5,212.9 585.5,288.3 		"/>
		<line class="st8" x1="389.5" y1="346.5" x2="432.6" y2="346.5"/>
		<g id="_Group_32">
			<polygon id="_Path_" class="st9" points="420.6,338.7 433,346.4 420.6,354.1 			"/>
		</g>
		<line class="st8" x1="389.5" y1="305.1" x2="432.6" y2="305.1"/>
		<g id="_Group_33">
			<polygon id="_Path_2" class="st9" points="420.6,297.3 433,305 420.6,312.7 			"/>
		</g>
		<line class="st8" x1="389.5" y1="325.7" x2="432.6" y2="325.7"/>
		<g id="_Group_34">
			<polygon id="_Path_3" class="st9" points="420.6,318 433,325.7 420.6,333.4 			"/>
		</g>
		<line class="st8" x1="633.7" y1="224.7" x2="590.6" y2="224.7"/>
		<g id="_Group_35">
			<polygon id="_Path_4" class="st9" points="602.6,232.5 590.2,224.8 602.6,217 			"/>
		</g>
		<line class="st8" x1="633.7" y1="247.4" x2="590.6" y2="247.4"/>
		<g id="_Group_36">
			<polygon id="_Path_5" class="st9" points="602.6,255.2 590.2,247.5 602.6,239.7 			"/>
		</g>
		<path class="st10" d="M468.8,242.9c0,0.5-0.9,0.9-1.3,0.9h-9.8c-0.5,0-0.8-0.4-0.9-0.9v-10.5c0-0.5,0.4-0.9,0.9-0.9h9.8
			c0.4,0,1.3,0.5,1.3,0.9L468.8,242.9z"/>
		<path class="st11" d="M485,242.9c0,0.5-0.4,0.9-0.9,0.9h-9.8c-0.4,0-1.3-0.5-1.3-0.9v-10.5c0-0.5,0.9-0.9,1.3-0.9h9.8
			c0.5,0,0.8,0.4,0.9,0.9V242.9z"/>
		<path class="st6" d="M501.6,242.9c0,0.5-0.9,0.9-1.3,0.9h-9.8c-0.5,0-0.8-0.4-0.9-0.9v-10.5c0-0.5,0.4-0.9,0.9-0.9h9.8
			c0.4,0,1.3,0.5,1.3,0.9V242.9z"/>
		<path class="st10" d="M517.9,242.9c0,0.5-0.4,0.9-0.9,0.9h-9.8c-0.4,0-1.3-0.5-1.3-0.9v-10.5c0-0.5,0.9-0.9,1.3-0.9h9.8
			c0.5,0,0.8,0.4,0.9,0.9V242.9z"/>
		<path class="st6" d="M468.8,260.2c0,0.5-0.9,0.9-1.3,0.9h-9.8c-0.5,0-0.8-0.4-0.9-0.9v-10.5c0-0.5,0.4-0.9,0.9-0.9h9.8
			c0.4,0,1.3,0.5,1.3,0.9L468.8,260.2z"/>
		<path class="st10" d="M485,260.2c0,0.5-0.4,0.9-0.9,0.9h-9.8c-0.4,0-1.3-0.5-1.3-0.9v-10.5c0-0.5,0.9-0.9,1.3-0.9h9.8
			c0.5,0,0.8,0.4,0.9,0.9V260.2z"/>
		<path class="st12" d="M501.6,260.2c0,0.5-0.9,0.9-1.3,0.9h-9.8c-0.5,0-0.8-0.4-0.9-0.9v-10.5c0-0.5,0.4-0.9,0.9-0.9h9.8
			c0.4,0,1.3,0.5,1.3,0.9V260.2z"/>
		<path class="st13" d="M517.9,260.2c0,0.5-0.4,0.9-0.9,0.9h-9.8c-0.4,0-1.3-0.5-1.3-0.9v-10.5c0-0.5,0.9-0.9,1.3-0.9h9.8
			c0.5,0,0.8,0.4,0.9,0.9V260.2z"/>
		<path class="st11" d="M468.8,277.6c0,0.5-0.9,0.9-1.3,0.9h-9.8c-0.5,0-0.8-0.4-0.9-0.9v-10.5c0-0.5,0.4-0.9,0.9-0.9h9.8
			c0.4,0,1.3,0.5,1.3,0.9L468.8,277.6z"/>
		<path class="st13" d="M485,277.6c0,0.5-0.4,0.9-0.9,0.9h-9.8c-0.4,0-1.3-0.5-1.3-0.9v-10.5c0-0.5,0.9-0.9,1.3-0.9h9.8
			c0.5,0,0.8,0.4,0.9,0.9V277.6z"/>
		<path class="st14" d="M501.6,277.6c0,0.5-0.9,0.9-1.3,0.9h-9.8c-0.5,0-0.8-0.4-0.9-0.9v-10.5c0-0.5,0.4-0.9,0.9-0.9h9.8
			c0.4,0,1.3,0.5,1.3,0.9V277.6z"/>
		<path class="st6" d="M517.9,277.6c0,0.5-0.4,0.9-0.9,0.9h-9.8c-0.4,0-1.3-0.5-1.3-0.9v-10.5c0-0.5,0.9-0.9,1.3-0.9h9.8
			c0.5,0,0.8,0.4,0.9,0.9V277.6z"/>
		<path class="st13" d="M468.8,295c0,0.5-0.9,0.9-1.3,0.9h-9.8c-0.5,0-0.8-0.4-0.9-0.9v-10.5c0-0.9,0.4-1.4,0.9-1.4h9.8
			c0.7,0,1.2,0.6,1.3,1.4L468.8,295z"/>
		<path class="st6" d="M485,295c0,0.5-0.4,0.9-0.9,0.9h-9.8c-0.4,0-1.3-0.5-1.3-0.9v-10.5c0-0.7,0.6-1.3,1.3-1.4h9.8
			c0.4,0,0.9,0.5,0.9,1.4V295z"/>
		<path class="st15" d="M501.6,295c0,0.5-0.9,0.9-1.3,0.9h-9.8c-0.5,0-0.8-0.4-0.9-0.9v-10.5c0-0.9,0.4-1.4,0.9-1.4h9.8
			c0.7,0,1.2,0.6,1.3,1.4V295z"/>
		<path class="st10" d="M517.9,295c0,0.5-0.4,0.9-0.9,0.9h-9.8c-0.4,0-1.3-0.5-1.3-0.9v-10.5c0-0.7,0.6-1.3,1.3-1.4h9.8
			c0.4,0,0.9,0.5,0.9,1.4V295z"/>
		<path class="st13" d="M533.6,242.9c0,0.5-0.4,0.9-1.3,0.9H523c-0.9,0-1.3-0.5-1.3-0.9v-10.5c0-0.5,0.4-0.9,1.3-0.9h9.4
			c0.9,0,1.3,0.5,1.3,0.9V242.9z"/>
		<path class="st12" d="M533.6,260.2c0,0.5-0.4,0.9-1.3,0.9H523c-0.9,0-1.3-0.5-1.3-0.9v-10.5c0-0.5,0.4-0.9,1.3-0.9h9.4
			c0.9,0,1.3,0.5,1.3,0.9V260.2z"/>
		<path class="st11" d="M533.6,277.6c0,0.5-0.4,0.9-1.3,0.9H523c-0.9,0-1.3-0.5-1.3-0.9v-10.5c0-0.5,0.4-0.9,1.3-0.9h9.4
			c0.9,0,1.3,0.5,1.3,0.9V277.6z"/>
		<path class="st13" d="M533.6,295c0,0.5-0.4,0.9-1.3,0.9H523c-0.9,0-1.3-0.5-1.3-0.9v-10.5c-0.1-0.7,0.3-1.3,1-1.4
			c0.1,0,0.2,0,0.3,0h9.4c0.6-0.1,1.2,0.4,1.3,1c0,0.1,0,0.2,0,0.4V295z"/>
		<path class="st15" d="M468.8,311.9c0,0.7-0.6,1.3-1.3,1.4h-9.8c-0.4,0-0.9-0.5-0.9-1.4v-10.1c0-0.9,0.4-1.4,0.9-1.4h9.8
			c0.7,0,1.2,0.6,1.3,1.4L468.8,311.9z"/>
		<path class="st10" d="M485,311.9c0,0.9-0.4,1.4-0.9,1.4h-9.8c-0.7,0-1.2-0.6-1.3-1.4v-10.1c0-0.7,0.6-1.3,1.3-1.4h9.8
			c0.4,0,0.9,0.5,0.9,1.4V311.9z"/>
		<path class="st11" d="M501.6,311.9c0,0.7-0.6,1.3-1.3,1.4h-9.8c-0.4,0-0.9-0.5-0.9-1.4v-10.1c0-0.9,0.4-1.4,0.9-1.4h9.8
			c0.7,0,1.2,0.6,1.3,1.4V311.9z"/>
		<path class="st14" d="M517.9,311.9c0,0.9-0.4,1.4-0.9,1.4h-9.8c-0.7,0-1.2-0.6-1.3-1.4v-10.1c0-0.7,0.6-1.3,1.3-1.4h9.8
			c0.4,0,0.9,0.5,0.9,1.4V311.9z"/>
		<path class="st6" d="M533.6,311.9c0.1,0.7-0.3,1.3-1,1.4c-0.1,0-0.2,0-0.3,0H523c-0.6,0.1-1.2-0.4-1.3-1c0-0.1,0-0.2,0-0.4v-10.1
			c-0.1-0.7,0.3-1.3,1-1.4c0.1,0,0.2,0,0.3,0h9.4c0.6-0.1,1.2,0.4,1.3,1c0,0.1,0,0.2,0,0.4V311.9z"/>
		<path class="st10" d="M549.7,242.9c0,0.5-0.4,0.9-0.9,0.9H539c-0.4,0-1.3-0.5-1.3-0.9v-10.5c0-0.5,0.9-0.9,1.3-0.9h9.8
			c0.5,0,0.8,0.4,0.9,0.9L549.7,242.9z"/>
		<path class="st11" d="M549.7,260.2c0,0.5-0.4,0.9-0.9,0.9H539c-0.4,0-1.3-0.5-1.3-0.9v-10.5c0-0.5,0.9-0.9,1.3-0.9h9.8
			c0.5,0,0.8,0.4,0.9,0.9L549.7,260.2z"/>
		<path class="st6" d="M549.7,277.6c0,0.5-0.4,0.9-0.9,0.9H539c-0.4,0-1.3-0.5-1.3-0.9v-10.5c0-0.5,0.9-0.9,1.3-0.9h9.8
			c0.5,0,0.8,0.4,0.9,0.9L549.7,277.6z"/>
		<path class="st10" d="M549.7,295c0,0.5-0.4,0.9-0.9,0.9H539c-0.4,0-1.3-0.5-1.3-0.9v-10.5c0-0.7,0.6-1.3,1.3-1.4h9.8
			c0.4,0,0.9,0.5,0.9,1.4L549.7,295z"/>
		<path class="st13" d="M565.5,242.9c0,0.5-0.4,0.9-1.3,0.9h-9.4c-0.9,0-1.3-0.5-1.3-0.9v-10.5c0-0.5,0.4-0.9,1.3-0.9h9.4
			c0.9,0,1.3,0.5,1.3,0.9L565.5,242.9z"/>
		<path class="st11" d="M565.5,260.2c0,0.5-0.4,0.9-1.3,0.9h-9.4c-0.9,0-1.3-0.5-1.3-0.9v-10.5c0-0.5,0.4-0.9,1.3-0.9h9.4
			c0.9,0,1.3,0.5,1.3,0.9L565.5,260.2z"/>
		<path class="st11" d="M565.5,277.6c0,0.5-0.4,0.9-1.3,0.9h-9.4c-0.9,0-1.3-0.5-1.3-0.9v-10.5c0-0.5,0.4-0.9,1.3-0.9h9.4
			c0.9,0,1.3,0.5,1.3,0.9L565.5,277.6z"/>
		<path class="st11" d="M565.5,295c0,0.5-0.4,0.9-1.3,0.9h-9.4c-0.9,0-1.3-0.5-1.3-0.9v-10.5c-0.1-0.7,0.3-1.3,1-1.4
			c0.1,0,0.2,0,0.3,0h9.4c0.6-0.1,1.2,0.4,1.3,1c0,0.1,0,0.2,0,0.4L565.5,295z"/>
		<path class="st14" d="M549.7,311.9c0,0.9-0.4,1.4-0.9,1.4H539c-0.7,0-1.2-0.6-1.3-1.4v-10.1c0.1-0.7,0.6-1.3,1.3-1.3h9.8
			c0.4,0,0.9,0.5,0.9,1.4L549.7,311.9z"/>
		<path class="st6" d="M565.5,311.9c0.1,0.7-0.3,1.3-1,1.4c-0.1,0-0.2,0-0.3,0h-9.4c-0.6,0.1-1.2-0.4-1.3-1c0-0.1,0-0.2,0-0.4v-10.1
			c-0.1-0.7,0.3-1.3,1-1.4c0.1,0,0.2,0,0.3,0h9.4c0.6-0.1,1.2,0.4,1.3,1c0,0.1,0,0.2,0,0.4L565.5,311.9z"/>
		<path class="st13" d="M468.8,329.8c0,0.5-0.9,0.9-1.3,0.9h-9.8c-0.5,0-0.8-0.4-0.9-0.9v-10.5c0-0.9,0.4-1.4,0.9-1.4h9.8
			c0.7,0,1.2,0.6,1.3,1.4L468.8,329.8z"/>
		<path class="st6" d="M485,329.8c0,0.5-0.4,0.9-0.9,0.9h-9.8c-0.4,0-1.3-0.5-1.3-0.9v-10.5c0-0.7,0.6-1.3,1.3-1.4h9.8
			c0.4,0,0.9,0.5,0.9,1.4V329.8z"/>
		<path class="st11" d="M501.6,329.8c0,0.5-0.9,0.9-1.3,0.9h-9.8c-0.5,0-0.8-0.4-0.9-0.9v-10.5c0-0.9,0.4-1.4,0.9-1.4h9.8
			c0.7,0,1.2,0.6,1.3,1.4V329.8z"/>
		<path class="st10" d="M517.9,329.8c0,0.5-0.4,0.9-0.9,0.9h-9.8c-0.4,0-1.3-0.5-1.3-0.9v-10.5c0-0.7,0.6-1.3,1.3-1.4h9.8
			c0.4,0,0.9,0.5,0.9,1.4V329.8z"/>
		<path class="st13" d="M533.6,329.8c0,0.5-0.4,0.9-1.3,0.9H523c-0.9,0-1.3-0.5-1.3-0.9v-10.5c-0.1-0.7,0.3-1.3,1-1.4
			c0.1,0,0.2,0,0.3,0h9.4c0.6-0.1,1.2,0.4,1.3,1c0,0.1,0,0.2,0,0.4V329.8z"/>
		<path class="st11" d="M468.8,346.7c0,0.7-0.6,1.3-1.3,1.4h-9.8c-0.4,0-0.9-0.5-0.9-1.4v-10.1c0-0.9,0.4-1.4,0.9-1.4h9.8
			c0.7,0,1.2,0.6,1.3,1.4L468.8,346.7z"/>
		<path class="st10" d="M485,346.7c0,0.9-0.4,1.4-0.9,1.4h-9.8c-0.7,0-1.2-0.6-1.3-1.4v-10.1c0-0.7,0.6-1.3,1.3-1.4h9.8
			c0.4,0,0.9,0.5,0.9,1.4V346.7z"/>
		<path class="st12" d="M501.6,346.7c0,0.7-0.6,1.3-1.3,1.4h-9.8c-0.4,0-0.9-0.5-0.9-1.4v-10.1c0-0.9,0.4-1.4,0.9-1.4h9.8
			c0.7,0,1.2,0.6,1.3,1.4V346.7z"/>
		<path class="st14" d="M517.9,346.7c0,0.9-0.4,1.4-0.9,1.4h-9.8c-0.7,0-1.2-0.6-1.3-1.4v-10.1c0-0.7,0.6-1.3,1.3-1.4h9.8
			c0.4,0,0.9,0.5,0.9,1.4V346.7z"/>
		<path class="st6" d="M533.6,346.7c0.1,0.7-0.3,1.3-1,1.4c-0.1,0-0.2,0-0.3,0H523c-0.6,0.1-1.2-0.4-1.3-1c0-0.1,0-0.2,0-0.4v-10.1
			c-0.1-0.7,0.3-1.3,1-1.4c0.1,0,0.2,0,0.3,0h9.4c0.6-0.1,1.2,0.4,1.3,1c0,0.1,0,0.2,0,0.4V346.7z"/>
		<path class="st10" d="M549.7,329.8c0,0.5-0.4,0.9-0.9,0.9H539c-0.4,0-1.3-0.5-1.3-0.9v-10.5c0-0.7,0.6-1.3,1.3-1.4h9.8
			c0.4,0,0.9,0.5,0.9,1.4L549.7,329.8z"/>
		<path class="st13" d="M565.5,329.8c0,0.5-0.4,0.9-1.3,0.9h-9.4c-0.9,0-1.3-0.5-1.3-0.9v-10.5c-0.1-0.7,0.3-1.3,1-1.4
			c0.1,0,0.2,0,0.3,0h9.4c0.6-0.1,1.2,0.4,1.3,1c0,0.1,0,0.2,0,0.4L565.5,329.8z"/>
		<path class="st14" d="M549.7,346.7c0,0.9-0.4,1.4-0.9,1.4H539c-0.7,0-1.2-0.6-1.3-1.4v-10.1c0-0.7,0.6-1.3,1.3-1.4h9.8
			c0.4,0,0.9,0.5,0.9,1.4L549.7,346.7z"/>
		<path class="st6" d="M565.5,346.7c0.1,0.7-0.3,1.3-0.9,1.4c-0.1,0-0.2,0-0.3,0h-9.4c-0.6,0.1-1.2-0.4-1.3-1c0-0.1,0-0.2,0-0.4
			v-10.1c-0.1-0.7,0.3-1.3,1-1.4c0.1,0,0.2,0,0.3,0h9.4c0.6-0.1,1.2,0.4,1.3,1c0,0.1,0,0.2,0,0.4L565.5,346.7z"/>
		<path id="_Path_6" class="st12" d="M584.1,258.6v2.9h-0.7c-1.1,0-1.9,0.9-1.9,2.1v18.9c0,1.1,0.9,2.1,1.9,2.1h0.7v3h3.5v-3h0.7
			c1.1,0,1.9-0.9,1.9-2.1v-18.8c0-1.1-0.9-2.1-1.9-2.1h-0.7v-3L584.1,258.6z"/>
		<path id="_Path_7" class="st12" d="M578.1,364.4h-2.8v-0.7c0-1.1-0.9-2.1-1.9-2.1h-17.6c-1.1,0-1.9,0.9-1.9,2.1v0.7h-2.8v3.7h2.8
			v0.7c0,1.1,0.9,2.1,1.9,2.1h17.6c1.1,0,1.9-0.9,1.9-2.1v-0.7h2.8L578.1,364.4z"/>
		<g id="_Group_37">
			<g id="_Group_38">
				<g id="_Group_39">
					<g id="_Group_40">
						<g id="_Group_41">
							<g id="_Group_42">
								<g id="_Group_43">
									<g id="_Group_44">
										<g id="_Group_45">
											<g id="_Group_46">
												<path id="_Path_8" class="st16" d="M626.9,287.2c-15,1.6-29.9-3.4-41.5-13.7c-11.5,10.4-26.5,15.4-41.5,13.8
													c0,0-7.7,74.9,41.5,89.8C634.6,362,626.9,287.2,626.9,287.2z"/>
											</g>
										</g>
									</g>
								</g>
							</g>
						</g>
					</g>
				</g>
				<g id="_Group_47">
					<g id="_Group_48">
						<g id="_Group_49">
							<g id="_Group_50">
								<g id="_Group_51">
									<g id="_Group_52">
										<g id="_Group_53">
											<g id="_Group_54">
												<path id="_Path_9" class="st17" d="M585.5,367.3c-30.5-11.1-33.5-52.6-33.3-70.7c11.9-0.6,23.4-4.6,33.3-11.7
													c9.9,7.1,21.4,11.2,33.3,11.7C619,314.5,615.9,356.1,585.5,367.3z"/>
											</g>
										</g>
									</g>
								</g>
							</g>
						</g>
					</g>
				</g>
				<g id="_Group_55">
					<g id="_Group_56">
						<g id="_Group_57">
							<g id="_Group_58">
								<g id="_Group_59">
									<g id="_Group_60">
										<g id="_Group_61">
											<g id="_Group_62">
												<path id="_Path_10" class="st12" d="M585.7,289.1L585.7,289.1V363l0,0c27.3-10,29.9-47.2,29.8-63.4
													C604.9,299.1,594.6,295.5,585.7,289.1z"/>
											</g>
										</g>
									</g>
								</g>
							</g>
						</g>
					</g>
				</g>
				<g id="_Group_63">
					<g id="_Group_64">
						<g id="_Group_65">
							<g id="_Group_66">
								<g id="_Group_67">
									<g id="_Group_68">
										<g id="_Group_69">
											<g id="_Group_70">
												<path id="_Compound_Path_5" class="st18" d="M585.5,368.2l-0.3-0.1c-31.1-11.5-34.1-53.9-33.9-71.5v-0.9h0.8
													c11.8-0.5,23.1-4.5,32.9-11.6l0.4-0.3l0.4,0.3c9.8,7,21.1,11,32.8,11.6h0.9v0.9c0.1,17.7-2.9,60.1-33.9,71.5
													L585.5,368.2z M553,297.4c-0.1,17.7,3,57.9,32.5,68.9c29.2-11,32.5-51.1,32.5-68.9c-11.6-0.7-22.8-4.7-32.5-11.5
													C575.8,292.7,564.6,296.7,553,297.4L553,297.4z"/>
											</g>
										</g>
									</g>
								</g>
							</g>
						</g>
					</g>
				</g>
			</g>
			<g id="_Group_71">
				<g id="_Group_72">
					<g id="_Group_73" class="st19">
						<g id="_Group_74">
							<path id="_Compound_Path_6" d="M602,317.3h-1.7v-4.9c0-7.7-5.8-13.8-12.9-13.9h-0.3c-7.1,0-12.9,6.2-12.9,13.9v4.9h-1.7
								c-1.2,0-2.1,1-2.1,2.3v26.2c0,1.3,0.9,2.3,2.1,2.3H602c1.2,0,2.1-1,2.1-2.3v-26.1C604.1,318.3,603.2,317.3,602,317.3z
								 M578.3,317.3v-4.9c0-5.2,3.9-9.4,8.7-9.4c0,0,0,0,0,0h0.3c4.8,0,8.8,4.2,8.8,9.4c0,0,0,0,0,0v4.9L578.3,317.3z"/>
						</g>
					</g>
					<g id="_Group_75">
						<g id="_Group_76">
							<g id="_Group_77">
								<g id="_Group_78">
									<path id="_Path_11" class="st2" d="M602.2,343.7c0,1.3-0.9,2.3-2.1,2.3h-29.5c-1.2,0-2.1-1-2.1-2.3v-26.1
										c0-1.3,0.9-2.3,2.1-2.3h29.5c1.2,0,2.1,1,2.1,2.3L602.2,343.7z"/>
								</g>
							</g>
						</g>
						<g id="_Group_79">
							<g id="_Group_80">
								<g id="_Group_81">
									<g id="_Group_82">
										<g id="_Group_83">
											<g id="_Group_84">
												<g id="_Group_85">
													<g id="_Group_86">
														<path id="_Path_12" class="st5" d="M576.5,315.4v-4.9c0-5.2,3.9-9.4,8.7-9.4c0,0,0,0,0,0h0.3c4.8,0,8.8,4.2,8.8,9.4
															c0,0,0,0,0,0v4.9h4.1v-4.9c0-7.7-5.8-13.8-12.9-13.9h-0.3c-7.1,0-12.9,6.2-12.9,13.9v4.9H576.5z"/>
													</g>
												</g>
											</g>
										</g>
									</g>
								</g>
							</g>
						</g>
						<g id="_Group_87">
							<g id="_Group_88">
								<g id="_Group_89">
									<g id="_Group_90">
										<g id="_Group_91">
											<g id="_Group_92">
												<g id="_Group_93">
													<g id="_Group_94">
														<path id="_Path_13" class="st20" d="M590.1,328c0-2.8-2.1-5-4.7-5c-2.6,0-4.6,2.2-4.6,5c0,2.1,1.2,4,3,4.7v6.7h3.2
															v-6.7C588.8,332,590.1,330.1,590.1,328z"/>
													</g>
												</g>
											</g>
										</g>
									</g>
								</g>
							</g>
						</g>
					</g>
				</g>
			</g>
		</g>
		<g>
			<polygon class="st1" points="508.8,193.3 514.5,188.6 514.5,193.5 536.5,193.5 536.5,202.4 514.5,202.4 514.5,207.4 508.8,202.7 
				503.1,198 			"/>
		</g>
		<path class="st0" d="M444.3,112.2c0-4-3-7.2-6.7-7.2l0,0H301.3c-3.7,0-6.7,3.2-6.8,7.2c0,0,0,0,0,0v220.7h149.8V112.2z"/>
		<path class="st1" d="M294.5,332.8V369c0,4,3,7.2,6.8,7.2c0,0,0,0,0,0h136.3c3.7,0,6.7-3.2,6.7-7.2l0,0v-36.2H294.5z"/>
		<rect x="301.3" y="340.1" class="st10" width="136.4" height="28.9"/>
		<rect x="309.7" y="220.7" class="st1" width="121.2" height="36.2"/>
		<rect x="309.7" y="173.7" class="st1" width="121.2" height="36.2"/>
		<rect x="309.7" y="126.6" class="st1" width="121.2" height="36.2"/>
		<rect x="398.9" y="220.7" class="st11" width="32" height="36.2"/>
		<rect x="398.9" y="173.7" class="st11" width="32" height="36.2"/>
		<rect x="398.9" y="126.6" class="st11" width="32" height="36.2"/>
		<rect x="321.5" y="137.5" class="st14" width="69" height="3.6"/>
		<rect x="321.5" y="144.7" class="st14" width="69" height="3.6"/>
		<rect x="321.5" y="152" class="st14" width="69" height="3.6"/>
		<ellipse class="st21" cx="414.6" cy="146.5" rx="6.7" ry="7.2"/>
		<path class="st22" d="M415.8,139.4c2.7,2.7,3,7.2,0.5,10.1c-1.6,1.9-3.9,2.7-6.2,2.3c2.7,2.7,7,2.5,9.5-0.4
			c2.5-2.9,2.4-7.5-0.4-10.2C418.3,140.3,417.1,139.7,415.8,139.4L415.8,139.4z"/>
		<ellipse class="st23" cx="411.8" cy="144.1" rx="1.4" ry="1.5"/>
		<rect x="321.5" y="182.7" class="st14" width="69" height="3.6"/>
		<rect x="321.5" y="189.9" class="st14" width="69" height="3.6"/>
		<rect x="321.5" y="197.2" class="st14" width="69" height="3.6"/>
		<ellipse class="st24" cx="414.6" cy="191.7" rx="6.7" ry="7.2"/>
		<path class="st22" d="M415.8,184.7c2.7,2.7,2.9,7.2,0.4,10.2c-1.6,1.8-3.9,2.7-6.2,2.2c2.7,2.7,7,2.6,9.5-0.3
			c2.5-2.9,2.4-7.5-0.3-10.2C418.3,185.6,417.1,184.9,415.8,184.7z"/>
		<ellipse class="st23" cx="411.8" cy="189.3" rx="1.4" ry="1.5"/>
		<rect x="321.5" y="229.7" class="st14" width="69" height="3.6"/>
		<rect x="321.5" y="237" class="st14" width="69" height="3.6"/>
		<rect x="321.5" y="244.2" class="st14" width="69" height="3.6"/>
		<ellipse class="st25" cx="414.6" cy="238.8" rx="6.7" ry="7.2"/>
		<path class="st22" d="M415.8,231.7c2.7,2.7,3,7.2,0.5,10.1c-1.6,1.9-3.9,2.7-6.3,2.3c2.7,2.7,7,2.5,9.5-0.4
			c2.5-2.9,2.4-7.5-0.4-10.2C418.3,232.5,417.1,231.9,415.8,231.7z"/>
		<ellipse class="st23" cx="411.8" cy="236.4" rx="1.4" ry="1.5"/>
		<rect x="309.7" y="267.7" class="st1" width="121.2" height="36.2"/>
		<rect x="398.9" y="267.7" class="st11" width="32" height="36.2"/>
		<rect x="321.5" y="276.8" class="st14" width="69" height="3.6"/>
		<rect x="321.5" y="284" class="st14" width="69" height="3.6"/>
		<rect x="321.5" y="291.2" class="st14" width="69" height="3.6"/>
		<ellipse class="st26" cx="414.6" cy="285.8" rx="6.7" ry="7.2"/>
		<path class="st22" d="M415.8,278.7c2.7,2.7,3,7.2,0.5,10.1c-1.6,1.9-3.9,2.7-6.3,2.3c2.7,2.7,7,2.5,9.5-0.4
			c2.5-2.9,2.4-7.5-0.4-10.2C418.3,279.6,417.1,278.9,415.8,278.7z"/>
		<ellipse class="st23" cx="411.8" cy="283.4" rx="1.4" ry="1.5"/>
		<path class="st1" d="M425.9,361.8c0,1-0.8,1.8-1.7,1.8l0,0H318.1c-0.9,0-1.7-0.8-1.7-1.8v0l0,0c0-1,0.8-1.8,1.7-1.8l0,0h106.1
			C425.1,360,425.9,360.8,425.9,361.8L425.9,361.8L425.9,361.8z"/>
		<path class="st1" d="M425.9,354.6c0,1-0.8,1.8-1.7,1.8l0,0H318.1c-0.9,0-1.7-0.8-1.7-1.8c0,0,0,0,0,0l0,0c0-1,0.8-1.8,1.7-1.8l0,0
			h106.1C425.1,352.8,425.9,353.6,425.9,354.6L425.9,354.6L425.9,354.6z"/>
		<path class="st1" d="M425.9,347.3c0,1-0.8,1.8-1.7,1.8l0,0H318.1c-0.9,0-1.7-0.8-1.7-1.8v0l0,0c0-1,0.8-1.8,1.7-1.8l0,0h106.1
			C425.1,345.5,425.9,346.3,425.9,347.3L425.9,347.3L425.9,347.3z"/>
		<g id="_Group_95">
			<g id="_Group_96">
				<g id="_Group_97">
					<path id="_Compound_Path_7" class="st3" d="M108,168.1c0,33,24.8,59.9,55.5,60.1h0.8c30.9-0.4,55.6-27.7,55.2-60.9
						c-0.4-32.6-24.9-58.9-55.2-59.3h-0.8C132.8,108.3,108,135.1,108,168.1z M146,116.5c-9.9,10.1-16.6,28.3-17.1,49.2h-16.3
						C113.6,143.6,126.8,124.2,146,116.5z M156.6,114.7c-5.3,10.9-7.6,33.4-7.7,50.9h-15.2C134.2,140.9,143.9,120.4,156.6,114.7
						L156.6,114.7z M174.3,165.5h-20.8c0.3-33.9,6.9-52.4,10.5-52.5l0,0C167.3,113.1,174,131.6,174.3,165.5L174.3,165.5z
						 M194.1,165.5H179c-0.3-17.5-2.4-40-7.7-50.9C183.9,120.4,193.5,140.9,194.1,165.5L194.1,165.5z M215.2,165.7h-16.3
						c-0.5-20.9-7.2-39.1-17.1-49.2C201,124.2,214.2,143.6,215.2,165.7L215.2,165.7z M181.8,219.8c9.9-10.1,16.6-28.3,17.1-49.2
						h16.3C214.2,192.7,201,212,181.8,219.8L181.8,219.8z M171.2,221.5c5.3-10.9,7.6-33.4,7.7-50.9h15.2
						C193.5,195.3,183.9,215.8,171.2,221.5L171.2,221.5z M153.5,170.6h20.8c-0.3,33.9-6.9,52.4-10.5,52.5l0,0
						C160.4,223,153.8,204.5,153.5,170.6z M133.7,170.6h15.2c0.3,17.5,2.4,40,7.7,50.9C143.9,215.8,134.2,195.3,133.7,170.6z
						 M112.6,170.6h16.3c0.5,20.9,7.3,39.1,17.1,49.2C126.8,212,113.7,192.7,112.6,170.6L112.6,170.6z"/>
				</g>
			</g>
			<g id="_Group_98">
				<g id="_Group_99">
					<g id="_Group_100">
						<path id="_Path_14" class="st3" d="M190.7,194l1.2-4.8c-4.4-1.5-9-2.7-13.6-3.4c-0.1,1.6-0.3,3.4-0.4,5
							C182.3,191.5,186.5,192.6,190.7,194z"/>
					</g>
				</g>
				<g id="_Group_101">
					<g id="_Group_102">
						<path id="_Path_15" class="st3" d="M135.8,189.1c0.4,1.8,0.8,3.2,1.2,4.8c4.2-1.5,8.4-2.6,12.8-3.2c-0.1-1.6-0.3-3.4-0.4-5
							C144.8,186.5,140.3,187.6,135.8,189.1z"/>
					</g>
				</g>
				<g id="_Group_103">
					<g id="_Group_104">
						<path id="_Path_16" class="st3" d="M154.2,185.2c0.1,1.8,0.3,3.4,0.4,5c3.1-0.4,6.2-0.6,9.4-0.6c3.1,0,6.2,0.3,9.4,0.6
							c0.1-1.6,0.3-3.2,0.4-5C167.2,184.4,160.7,184.4,154.2,185.2L154.2,185.2z"/>
					</g>
				</g>
				<g id="_Group_105">
					<g id="_Group_106">
						<path id="_Path_17" class="st3" d="M204.8,201.1c0.9-1.3,1.8-2.8,2.6-4.1c-3.6-2.4-7.3-4.5-11.3-6.1c-0.4,1.6-0.8,3.1-1.2,4.7
							C198.4,197,201.7,198.9,204.8,201.1z"/>
					</g>
				</g>
				<g id="_Group_107">
					<g id="_Group_108">
						<path id="_Path_18" class="st3" d="M120.2,196.9c0.8,1.4,1.6,2.8,2.6,4.1c3.2-2.1,6.6-3.9,10.1-5.4c-0.4-1.5-0.8-3.1-1.2-4.7
							C127.7,192.5,123.9,194.5,120.2,196.9z"/>
					</g>
				</g>
			</g>
			<g id="_Group_109">
				<g id="_Group_110">
					<g id="_Group_111">
						<path id="_Path_19" class="st3" d="M173.7,150.9c-0.1-1.8-0.3-3.4-0.4-5c-3,0.3-6.1,0.4-9.4,0.4c-3.1,0-6.2-0.1-9.4-0.4
							c-0.1,1.6-0.3,3.2-0.4,5c3.2,0.4,6.5,0.6,9.8,0.6C167.2,151.5,170.5,151.3,173.7,150.9z"/>
					</g>
				</g>
				<g id="_Group_112">
					<g id="_Group_113">
						<path id="_Path_20" class="st3" d="M137.2,142.2L136,147c4.4,1.5,9,2.6,13.6,3.4c0.1-1.6,0.3-3.4,0.4-5
							C145.6,144.7,141.3,143.7,137.2,142.2z"/>
					</g>
				</g>
				<g id="_Group_114">
					<g id="_Group_115">
						<path id="_Path_21" class="st3" d="M191.9,147c-0.4-1.8-0.8-3.2-1.2-4.8c-4.2,1.5-8.4,2.6-12.8,3.2c0.1,1.6,0.3,3.4,0.4,5
							C183,149.6,187.5,148.5,191.9,147z"/>
					</g>
				</g>
				<g id="_Group_116">
					<g id="_Group_117">
						<path id="_Path_22" class="st3" d="M207.6,139.4c-0.8-1.4-1.6-2.8-2.6-4.1c-3.2,2.1-6.6,3.9-10.1,5.4c0.4,1.5,0.8,3.1,1.2,4.7
							C200.1,143.7,204,141.7,207.6,139.4z"/>
					</g>
				</g>
				<g id="_Group_118">
					<g id="_Group_119">
						<path id="_Path_23" class="st3" d="M120.4,139.1c3.6,2.4,7.3,4.5,11.3,6.1c0.4-1.6,0.8-3.1,1.2-4.7c-3.5-1.5-6.9-3.3-10.1-5.4
							C121.9,136.4,121.1,137.7,120.4,139.1z"/>
					</g>
				</g>
			</g>
		</g>
		<polygon class="st0" points="230.1,336.9 223.5,373.4 284.2,373.4 277.6,336.9 		"/>
		<polygon class="st10" points="279.9,349.6 277.6,336.9 230.1,336.9 227.8,349.6 		"/>
		<path class="st1" d="M152.2,178.6h204.1c3.4,0,6.2,3,6.2,6.7v153.3c0,3.7-2.8,6.7-6.2,6.7H152.2c-3.4,0-6.2-3-6.2-6.7V185.3
			C146,181.6,148.8,178.6,152.2,178.6z"/>
		<path class="st27" d="M355.8,167.5H151.9c-3.3,0-6,2.9-5.9,6.5c0,0.1,0,0.1,0,0.2v141.7h216.6V174.2
			C362.5,170.5,359.2,167.5,355.8,167.5z"/>
		<path class="st1" d="M217.9,370.6h72.2c2.6,0,4.6,2.2,4.6,5v0.6l0,0h-81l0,0v-1.1C213.7,372.7,215.6,370.7,217.9,370.6
			C217.9,370.6,217.9,370.6,217.9,370.6z"/>
		<rect x="159.3" y="186" class="st10" width="187.6" height="116.4"/>
		<rect x="183" y="134.6" class="st3" width="143.7" height="167.2"/>
		<rect x="183" y="134.6" class="st28" width="143.7" height="21.2"/>
		<ellipse class="st5" cx="211.8" cy="145.2" rx="3.3" ry="3.5"/>
		<ellipse class="st5" cx="203.6" cy="145.2" rx="3.3" ry="3.5"/>
		<ellipse class="st5" cx="195.3" cy="145.2" rx="3.3" ry="3.5"/>
		<rect x="195.3" y="168" class="st2" width="64" height="3.5"/>
		<rect x="195.3" y="177.5" class="st2" width="118.2" height="3.5"/>
		<rect x="195.3" y="187" class="st2" width="118.2" height="3.5"/>
		<rect x="195.3" y="196.5" class="st2" width="35.2" height="3.5"/>
		<rect x="254.5" y="143.4" class="st5" width="64" height="3.5"/>
		<ellipse class="st10" cx="254.5" cy="249.9" rx="40" ry="43"/>
		<path class="st29" d="M125.7,261.4c0-2.5,1.9-4.5,4.2-4.5H198c2.3,0,4.2,2,4.2,4.5v110.3c0,2.5-1.9,4.5-4.2,4.5h-68.2
			c-2.3,0-4.2-2-4.2-4.5l0,0V261.4z"/>
		<path class="st27" d="M159.7,366.8h8.4c1,0,1.9,0.9,1.9,2v0.5c0,1.1-0.8,2-1.9,2h-8.4c-1,0-1.9-0.9-1.9-2v-0.5
			C157.9,367.7,158.7,366.8,159.7,366.8z"/>
		<path class="st27" d="M163.9,264.8c-1.1,0-1.9-0.9-1.9-2.1c0-1.1,0.9-2.1,1.9-2.1c1.1,0,1.9,0.9,1.9,2.1
			C165.8,263.9,165,264.8,163.9,264.8L163.9,264.8z"/>
		<rect x="130" y="268.6" class="st10" width="67.8" height="93.2"/>
		<rect x="473.1" y="143.9" class="st10" width="45.2" height="36.3"/>
		<polygon class="st0" points="518.3,180.2 495.7,180.2 473.1,180.2 473.1,162.1 473.1,143.9 495.7,162.6 518.3,143.9 518.3,162.1 
					"/>
		<path class="st27" d="M51.8,315.4c-6.9,0-12.5,6-12.5,13.4v15.7h4.1v-15.7c0-5,3.8-9,8.4-9s8.4,4.1,8.4,9v15.7h4.1v-15.7
			C64.4,321.4,58.7,315.4,51.8,315.4C51.8,315.4,51.8,315.4,51.8,315.4z"/>
		<rect x="32.2" y="338.5" class="st21" width="39.3" height="37.3"/>
		<rect x="32.2" y="338.5" class="st30" width="19.7" height="37.3"/>
		<rect x="32.2" y="338.5" class="st31" width="39.3" height="4.4"/>
		<rect x="32.2" y="371.4" class="st31" width="39.3" height="4.4"/>
		<path class="st1" d="M43.8,357c0-4.7,3.6-8.6,8-8.6c0,0,0,0,0,0v-2.5c-5.7,0-10.3,5-10.3,11.1s4.6,11.1,10.3,11.1v-2.5
			C47.4,365.6,43.8,361.8,43.8,357z"/>
		<path class="st5" d="M51.8,345.9L51.8,345.9v2.5c4.4,0,8,3.8,8,8.6s-3.6,8.6-8,8.6v2.5l0,0c5.7,0.2,10.5-4.6,10.6-10.7
			c0.2-6.1-4.3-11.2-10-11.4C52.3,345.9,52,345.9,51.8,345.9L51.8,345.9z"/>
		<path class="st5" d="M59.8,357c0-4.7-3.6-8.6-8-8.6c0,0,0,0,0,0v17.2C56.2,365.6,59.8,361.8,59.8,357L59.8,357z"/>
		<path class="st1" d="M43.8,357c0,4.7,3.6,8.6,8,8.6c0,0,0,0,0,0v-17.2C47.4,348.4,43.8,352.3,43.8,357L43.8,357z"/>
		<path class="st29" d="M49.9,361.4l0.4-3.7c-1-0.9-1.2-2.5-0.4-3.6c0.8-1.1,2.3-1.3,3.3-0.4s1.2,2.5,0.4,3.6
			c-0.1,0.2-0.3,0.4-0.5,0.5l0.4,3.6L49.9,361.4z"/>
		<path class="st5" d="M163.9,331.2c-14.7,0-26.6-12.8-26.6-28.6s11.9-28.6,26.6-28.6c14.7,0,26.6,12.8,26.6,28.6c0,0,0,0,0,0
			C190.5,318.4,178.6,331.2,163.9,331.2z M163.9,276.3c-13.6,0-24.5,11.8-24.5,26.4c0,14.6,11,26.3,24.6,26.3
			c13.5,0,24.5-11.8,24.5-26.4C188.5,288.1,177.5,276.3,163.9,276.3z"/>
		<path class="st5" d="M163.6,287.2h0.6c2.7,0,4.8,2.3,4.8,5.2v3.9c0,2.9-2.2,5.2-4.8,5.2h-0.6c-2.7,0-4.8-2.3-4.8-5.2v-3.9
			C158.8,289.6,161,287.2,163.6,287.2z"/>
		<path class="st5" d="M158.9,291.6c0,0-2.8-1.4-1.2-5.9c0,0,0.8,0.9,1.2,0.9c2.1,0.3,3.6-2.9,8.6,0.2c2.2,1.3,1.4,1.5,1.4,5.3
			C169,292.2,162.2,288.8,158.9,291.6z"/>
		<path class="st5" d="M173.1,306.7c-0.1-1.2-0.6-2.2-1.5-2.9c-1.9-1-3.9-1.6-6-1.9l-1.7,6.6l-1.6-6.6c-2.1,0.2-4.1,0.9-6,1.9
			c-0.9,0.7-1.5,1.7-1.5,2.9v8h18.4V306.7z"/>
		<rect x="142.5" y="336.9" class="st5" width="42.9" height="6.6"/>
		<rect x="142.5" y="336.9" class="st6" width="8.2" height="6.6"/>
		<ellipse class="st28" cx="179.3" cy="340.2" rx="2" ry="2.2"/>
		<ellipse class="st28" cx="173.1" cy="340.2" rx="2" ry="2.2"/>
		<ellipse class="st28" cx="167" cy="340.2" rx="2" ry="2.2"/>
		<ellipse class="st28" cx="160.9" cy="340.2" rx="2" ry="2.2"/>
		<ellipse class="st28" cx="154.7" cy="340.2" rx="2" ry="2.2"/>
		<path class="st21" d="M174.1,353c0,2.1-1.6,3.8-3.6,3.8l0,0h-13.3c-2,0-3.6-1.7-3.6-3.8l0,0l0,0c0-2.1,1.6-3.8,3.6-3.8l0,0h13.3
			C172.5,349.2,174.1,350.9,174.1,353L174.1,353L174.1,353z"/>
		<path class="st5" d="M170.1,353.6h-12.3c-0.6,0-1-0.5-1-1.1s0.5-1.1,1-1.1h12.3c0.6,0,1,0.5,1,1.1S170.6,353.6,170.1,353.6z"/>
		<path class="st32" d="M496.4,336.1c2-8.4-2.7-16.9-10.5-19c-3.5-1-7.2-0.5-10.5,1.4c-2.2-12.5-13.4-20.8-25-18.4
			c-2.4,0.5-4.7,1.4-6.8,2.7c-10.7-17.3-32.5-22-48.6-10.5c-13.5,9.7-19.1,28.1-13.5,44.4c-8,2.5-13.5,10.4-13.6,19.4l0,0
			c0,11.1,8.4,20.2,18.8,20.2h106.5c10.4,0,18.8-9.1,18.8-20.2l0,0C512.1,346.2,505.4,337.7,496.4,336.1z"/>
		<path class="st1" d="M434.7,311.5c-6,0-10.9,5.2-10.9,11.7v13.6h3.6v-13.6c0.1-4.3,3.5-7.7,7.6-7.6c3.8,0.2,6.9,3.5,7,7.6v13.6
			h3.6v-13.6C445.6,316.8,440.7,311.5,434.7,311.5z"/>
		<rect x="417.6" y="331.6" class="st1" width="34.2" height="32.4"/>
		<rect x="417.6" y="331.6" class="st5" width="17.1" height="32.4"/>
		<rect x="417.6" y="331.6" class="st0" width="34.2" height="3.8"/>
		<rect x="417.6" y="360.2" class="st0" width="34.2" height="3.8"/>
		<path class="st1" d="M427.7,347.7c0-4.1,3.1-7.5,6.9-7.5V338c-5,0-9,4.3-9,9.6s4,9.6,9,9.6v-2.2
			C430.8,355.1,427.7,351.8,427.7,347.7L427.7,347.7z"/>
		<path class="st5" d="M434.7,338L434.7,338v2.2c3.8,0,6.9,3.3,6.9,7.5s-3.1,7.5-6.9,7.5v2.2l0,0c5,0,9-4.3,9-9.6
			S439.6,338,434.7,338L434.7,338z"/>
		<path class="st5" d="M441.6,347.7c0-4.1-3.1-7.5-6.9-7.5v14.9C438.5,355.1,441.6,351.8,441.6,347.7L441.6,347.7z"/>
		<path class="st1" d="M427.7,347.7c0,4.1,3.1,7.5,6.9,7.5v-14.9C430.8,340.2,427.7,343.5,427.7,347.7L427.7,347.7z"/>
		<path class="st29" d="M433,351.5l0.4-3.2c-0.9-0.8-1-2.1-0.3-3s2-1,2.8-0.3c0.9,0.8,1,2.1,0.3,3c-0.1,0.1-0.2,0.3-0.4,0.4l0.4,3.1
			L433,351.5z"/>
		<g id="_Group_120">
			<g id="_Group_121">
				<g id="_Group_122">
					<g id="_Group_123">
						<g id="_Group_124">
							<g id="_Group_125">
								<g id="_Group_126">
									<g id="_Group_127">
										<g id="_Group_128">
											<g id="_Group_129">
												<path id="_Path_24" class="st33" d="M254.5,285c31.3-9.5,26.4-57.2,26.4-57.2c-9.5,1-19.1-2.1-26.4-8.8
													c-7.3,6.6-16.9,9.8-26.4,8.8C228,227.7,223.1,275.4,254.5,285z"/>
											</g>
										</g>
									</g>
								</g>
							</g>
						</g>
					</g>
				</g>
				<g id="_Group_130">
					<g id="_Group_131">
						<g id="_Group_132">
							<g id="_Group_133">
								<g id="_Group_134">
									<g id="_Group_135">
										<g id="_Group_136">
											<g id="_Group_137">
												<path id="_Path_25" class="st17" d="M233.2,233.7c7.6-0.3,14.9-2.9,21.2-7.5c6.3,4.5,13.7,7.1,21.2,7.5
													c0.1,11.5-1.8,38-21.2,45.1C235,271.6,233.1,245.2,233.2,233.7z"/>
											</g>
										</g>
									</g>
								</g>
							</g>
						</g>
					</g>
				</g>
				<g id="_Group_138">
					<g id="_Group_139">
						<g id="_Group_140">
							<g id="_Group_141">
								<g id="_Group_142">
									<g id="_Group_143">
										<g id="_Group_144">
											<g id="_Group_145">
												<path id="_Path_26" class="st12" d="M235.2,235.6c-0.1,10.4,1.6,34,19,40.4l0,0V229l0,0
													C248.6,233,242,235.3,235.2,235.6z"/>
											</g>
										</g>
									</g>
								</g>
							</g>
						</g>
					</g>
				</g>
				<g id="_Group_146">
					<g id="_Group_147">
						<g id="_Group_148">
							<g id="_Group_149">
								<g id="_Group_150">
									<g id="_Group_151">
										<g id="_Group_152">
											<g id="_Group_153">
												<path id="_Compound_Path_8" class="st18" d="M254.3,279.3c-19.8-7.2-21.6-34.3-21.6-45.6v-0.6h0.5
													c7.5-0.4,14.7-2.9,20.9-7.4l0.3-0.2l0.3,0.2c6.2,4.5,13.5,7.1,21,7.4h0.5v0.6c0.1,11.2-1.8,38.2-21.6,45.6L254.3,279.3
													L254.3,279.3z M254.4,226.9c-6.2,4.3-13.3,6.9-20.7,7.3c0,11.4,2.1,36.9,20.7,43.9c18.7-7,20.7-32.6,20.7-43.9
													C267.7,233.8,260.6,231.3,254.4,226.9z"/>
											</g>
										</g>
									</g>
								</g>
							</g>
						</g>
					</g>
				</g>
			</g>
			<g id="_Group_154">
				<g id="_Group_155">
					<g id="_Group_156" class="st19">
						<g id="_Group_157">
							<path id="_Compound_Path_9" d="M242.5,248.4V265c0,0.8,0.6,1.5,1.3,1.5h18.8c0.7,0,1.3-0.6,1.3-1.5v-16.7
								c0-0.8-0.6-1.5-1.3-1.5h-1.1v-3.1c0-4.9-3.7-8.8-8.2-8.8h-0.2c-4.5,0-8.2,4-8.2,8.8v3.1h-1.1
								C243.1,246.9,242.5,247.6,242.5,248.4z M247.6,246.9v-3.1c0-3.3,2.5-6,5.6-6c0,0,0,0,0,0h0.2c3.1,0,5.6,2.7,5.6,6
								c0,0,0,0,0,0v3.1H247.6z"/>
						</g>
					</g>
					<g id="_Group_158">
						<g id="_Group_159">
							<g id="_Group_160">
								<g id="_Group_161">
									<path id="_Path_27" class="st2" d="M243.7,247.1c0-0.8,0.6-1.5,1.3-1.5h18.8c0.7,0,1.3,0.6,1.3,1.5v16.6
										c0,0.8-0.6,1.5-1.3,1.5h-18.8c-0.7,0-1.3-0.6-1.3-1.5V247.1z"/>
								</g>
							</g>
						</g>
						<g id="_Group_162">
							<g id="_Group_163">
								<g id="_Group_164">
									<g id="_Group_165">
										<g id="_Group_166">
											<g id="_Group_167">
												<g id="_Group_168">
													<g id="_Group_169">
														<path id="_Path_28" class="st5" d="M262.7,245.7v-3.1c0-4.9-3.7-8.8-8.2-8.8h-0.2c-4.5,0-8.2,4-8.2,8.8v3.1h2.6v-3.1
															c0-3.3,2.5-6,5.6-6c0,0,0,0,0,0h0.2c3.1,0,5.6,2.7,5.6,6c0,0,0,0,0,0v3.1H262.7z"/>
													</g>
												</g>
											</g>
										</g>
									</g>
								</g>
							</g>
						</g>
						<g id="_Group_170">
							<g id="_Group_171">
								<g id="_Group_172">
									<g id="_Group_173">
										<g id="_Group_174">
											<g id="_Group_175">
												<g id="_Group_176">
													<g id="_Group_177">
														<path id="_Path_29" class="st20" d="M253.4,256.7v4.3h2v-4.3c1.2-0.4,2-1.6,2-3c0-1.8-1.3-3.2-3-3.2
															c-1.6,0-3,1.4-3,3.2C251.5,255.1,252.3,256.3,253.4,256.7z"/>
													</g>
												</g>
											</g>
										</g>
									</g>
								</g>
							</g>
						</g>
					</g>
				</g>
			</g>
		</g>
		<path class="st6" d="M470.5,155c-5.1,0-9.2,4.4-9.2,9.9v11.5h3v-11.5c0-3.7,2.8-6.7,6.2-6.6c3.4,0,6.2,3,6.2,6.6v11.5h3v-11.5
			C479.7,159.5,475.5,155,470.5,155z"/>
		<rect x="456" y="172" class="st21" width="28.9" height="27.4"/>
		<rect x="456" y="172" class="st30" width="14.5" height="27.4"/>
		<rect x="456" y="172" class="st34" width="28.9" height="3.2"/>
		<rect x="456" y="196.2" class="st34" width="28.9" height="3.2"/>
		<path class="st1" d="M464.5,185.6c0-3.5,2.6-6.3,5.9-6.3v-1.8c-4.2,0.2-7.5,3.9-7.3,8.5c0.1,4.3,3.3,7.7,7.3,7.9V192
			C467.2,192,464.5,189.1,464.5,185.6z"/>
		<path class="st5" d="M470.5,177.5L470.5,177.5v1.8c3.3,0,5.9,2.8,5.9,6.3c0,3.5-2.6,6.3-5.9,6.3v1.8l0,0c4.2,0,7.6-3.7,7.6-8.2
			S474.7,177.5,470.5,177.5L470.5,177.5z"/>
		<path class="st5" d="M476.3,185.6c0-3.5-2.6-6.3-5.9-6.3V192C473.7,192,476.3,189.1,476.3,185.6z"/>
		<path class="st1" d="M464.5,185.6c0,3.5,2.6,6.3,5.9,6.3v-12.7C467.2,179.3,464.5,182.1,464.5,185.6
			C464.5,185.6,464.5,185.6,464.5,185.6z"/>
		<path class="st29" d="M469.1,188.9l0.3-2.7c-0.8-0.6-0.9-1.8-0.3-2.6c0.6-0.8,1.7-1,2.5-0.3c0.8,0.6,0.9,1.8,0.3,2.6
			c-0.1,0.1-0.2,0.3-0.4,0.4l0.3,2.7H469.1z"/>
	</g>
</g>
</svg>
