<?xml version="1.0" encoding="utf-8"?><svg id="Layer_1" data-name="Layer 1" xmlns="http://www.w3.org/2000/svg" xmlns:xlink="http://www.w3.org/1999/xlink" viewBox="0 0 500 500"><defs><style>.cls-1{fill:#b1cee0;opacity:0.2;}.cls-2{fill:#ffa466;}.cls-3{fill:#0060a9;}.cls-4,.cls-5,.cls-8{fill:none;}.cls-4{stroke:#0060a9;}.cls-4,.cls-8{stroke-miterlimit:10;}.cls-5{stroke:#88d4ef;stroke-linecap:round;stroke-linejoin:round;stroke-width:2px;}.cls-6{fill:url(#linear-gradient);}.cls-7{fill-rule:evenodd;opacity:0.7;fill:url(#linear-gradient-2);}.cls-8{stroke:#0060a0;}</style><linearGradient id="linear-gradient" x1="136.95" y1="62.81" x2="171.42" y2="62.81" gradientUnits="userSpaceOnUse"><stop offset="0" stop-color="#40d5e6"/><stop offset="1" stop-color="#57f"/></linearGradient><linearGradient id="linear-gradient-2" x1="459.71" y1="440.84" x2="486.7" y2="440.84" xlink:href="#linear-gradient"/></defs><title>services-network-security-logo-blue</title><path class="cls-1" d="M362.54,225.79a95.83,95.83,0,0,0-68.9-70.85,93.82,93.82,0,0,0-19.1-3c-1.73-.12-3.49-.16-5.25-.16a95.77,95.77,0,1,0,95.57,101.62q.18-2.91.18-5.87A95.31,95.31,0,0,0,362.54,225.79Z"/><path class="cls-2" d="M44.83,72.74a4.15,4.15,0,1,1-4.15-4.15A4.15,4.15,0,0,1,44.83,72.74Z"/><path class="cls-3" d="M387.91,55A22.87,22.87,0,1,1,365,32.16,22.87,22.87,0,0,1,387.91,55Z"/><path class="cls-4" d="M374,439.74a12.3,12.3,0,1,1-12.29-12.29A12.3,12.3,0,0,1,374,439.74Z"/><line class="cls-5" x1="72.98" y1="440.09" x2="72.98" y2="463.98"/><line class="cls-5" x1="84.93" y1="452.03" x2="61.04" y2="452.03"/><path class="cls-3" d="M469.34,199.74a8.18,8.18,0,1,1-8.18-8.18A8.17,8.17,0,0,1,469.34,199.74Z"/><path class="cls-3" d="M453.82,264.33a8.18,8.18,0,1,1-8.17-8.18A8.17,8.17,0,0,1,453.82,264.33Z"/><path class="cls-3" d="M424.81,344.64a8.18,8.18,0,1,1-8.17-8.18A8.17,8.17,0,0,1,424.81,344.64Z"/><path class="cls-3" d="M276.46,432.33a8.18,8.18,0,1,1-8.18-8.17A8.18,8.18,0,0,1,276.46,432.33Z"/><path class="cls-3" d="M166,420a8.18,8.18,0,1,1-8.17-8.18A8.17,8.17,0,0,1,166,420Z"/><path class="cls-3" d="M98.71,262a8.18,8.18,0,1,1-8.18-8.18A8.18,8.18,0,0,1,98.71,262Z"/><path class="cls-3" d="M188.56,114.81a8.18,8.18,0,1,1-8.17-8.18A8.17,8.17,0,0,1,188.56,114.81Z"/><path class="cls-3" d="M276.46,55.76a8.18,8.18,0,1,1-8.18-8.18A8.17,8.17,0,0,1,276.46,55.76Z"/><path class="cls-3" d="M407.57,146.32a8.18,8.18,0,1,1-8.18-8.18A8.18,8.18,0,0,1,407.57,146.32Z"/><path class="cls-3" d="M134.86,154.16a8.18,8.18,0,1,1-8.18-8.18A8.18,8.18,0,0,1,134.86,154.16Z"/><path class="cls-3" d="M82.36,340.51A9.38,9.38,0,1,1,73,331.14,9.37,9.37,0,0,1,82.36,340.51Z"/><path class="cls-6" d="M154.18,80.05a17.24,17.24,0,1,1,17.24-17.24A17.26,17.26,0,0,1,154.18,80.05Zm0-32.24a15,15,0,1,0,15,15A15,15,0,0,0,154.18,47.81Z"/><path class="cls-3" d="M273.1,467.84h-2.3l.05-4.77h2.25c1.35,0,2.69,0,4,0l.09,4.77C275.85,467.83,274.48,467.84,273.1,467.84Zm-11.92-.32c-2.14-.11-4.28-.26-6.4-.44l.39-4.75c2.08.17,4.17.32,6.26.43Zm25.66-.1-.3-4.76q3.15-.21,6.27-.49l.43,4.76Q290.06,467.22,286.84,467.42Zm-41.64-1.35c-2.13-.27-4.25-.58-6.36-.91l.75-4.72c2.06.33,4.13.62,6.22.89Zm57.61-.24-.65-4.73c2.08-.28,4.15-.6,6.21-.94l.79,4.71C307.05,465.22,304.94,465.54,302.81,465.83Zm-73.44-2.39q-3.15-.65-6.27-1.38l1.09-4.65q3,.72,6.14,1.35Zm89.25-.37-1-4.67q3.08-.66,6.12-1.4l1.13,4.63C322.8,462.14,320.72,462.61,318.62,463.07Zm-104.85-3.43q-3.09-.87-6.15-1.84l1.44-4.55c2,.63,4,1.22,6,1.8Zm120.41-.5-1.34-4.58q3-.88,6-1.86l1.47,4.55Q337.27,458.23,334.18,459.14Zm-135.7-4.45c-2-.74-4-1.51-6-2.3l1.78-4.44c1.94.78,3.91,1.53,5.88,2.25Zm-14.89-6.09q-2.94-1.34-5.82-2.74l2.09-4.28c1.88.91,3.78,1.81,5.7,2.67Zm-14.39-7.17q-2.82-1.55-5.6-3.17l2.41-4.12q2.72,1.59,5.47,3.1Zm-13.81-8.22q-2.7-1.74-5.35-3.56l2.71-3.94c1.72,1.2,3.47,2.36,5.23,3.49ZM142.23,424q-2.56-2-5.07-3.95l3-3.72c1.63,1.31,3.28,2.59,4.95,3.86Zm263-1-2.91-3.79c1.66-1.27,3.31-2.58,4.92-3.9l3,3.7Q407.8,421.09,405.24,423.05Zm-275.46-9.19c-1.61-1.42-3.19-2.86-4.76-4.31l3.26-3.49c1.53,1.42,3.08,2.83,4.66,4.21Zm287.82-1-3.18-3.57c1.56-1.39,3.11-2.81,4.63-4.24l3.28,3.47C420.77,409.94,419.19,411.4,417.6,412.82Zm-299.47-10q-2.25-2.28-4.43-4.64l3.5-3.24c1.42,1.53,2.86,3.05,4.33,4.54Zm311.05-1.12-3.44-3.31c1.46-1.51,2.89-3,4.31-4.58l3.52,3.22C432.13,398.61,430.66,400.17,429.18,401.7ZM107.31,391q-2.07-2.46-4.07-5l3.73-3c1.3,1.64,2.63,3.25,4,4.85Zm332.6-1.21-3.67-3.06c1.35-1.61,2.66-3.23,4-4.88l3.75,2.95Q442,387.3,439.91,389.77ZM97.4,378.37q-1.87-2.6-3.69-5.24l3.93-2.7q1.77,2.6,3.62,5.13Zm352.34-1.29-3.88-2.79c1.22-1.7,2.42-3.42,3.58-5.16l4,2.67C452.21,373.58,451,375.33,449.74,377.08Zm8.87-13.39-4.07-2.5q1.63-2.67,3.2-5.41l4.14,2.37Q460.29,360.94,458.61,363.69Zm7.86-14-4.24-2.18c.95-1.86,1.88-3.75,2.79-5.64l4.31,2Q467.93,346.81,466.47,349.67Zm6.81-14.57-4.39-1.86q1.22-2.89,2.36-5.84l4.45,1.73Q474.53,332.13,473.28,335.1ZM479,320.05l-4.53-1.53q1-3,1.92-6l4.57,1.38C480.33,316,479.67,318,479,320.05Zm4.55-15.41-4.62-1.18c.52-2,1-4.06,1.47-6.11l4.65,1C484.57,300.48,484.08,302.57,483.54,304.64Zm3.4-15.69-4.69-.83c.36-2.06.69-4.12,1-6.2l4.73.7C487.66,284.74,487.32,286.85,486.94,289ZM57.23,274.89c-.24-2.12-.44-4.25-.62-6.39l4.76-.39c.18,2.09.37,4.18.6,6.26Zm431.94-1.83-4.75-.48c.21-2.09.4-4.17.55-6.26l4.76.35C489.57,268.81,489.39,270.94,489.17,273.06ZM56.05,258.88q-.12-3.19-.15-6.4l4.77,0q0,3.15.14,6.28Zm434.17-1.82-4.77-.15c.06-2.09.09-4.17.09-6.28v-.51h4.78v.51C490.32,252.78,490.28,254.92,490.22,257.06ZM60.8,243,56,242.85c.07-2.15.18-4.28.32-6.42l4.76.32C61,238.83,60.87,240.92,60.8,243Zm424.51-2.3c-.1-2.1-.22-4.19-.38-6.27l4.76-.35c.16,2.12.29,4.26.39,6.4ZM61.92,227.36l-4.74-.52q.34-3.19.79-6.36l4.72.65C62.42,223.19,62.15,225.28,61.92,227.36ZM484,225.07q-.37-3.12-.84-6.23l4.72-.7q.48,3.17.86,6.36ZM64.2,211.83,59.51,211c.38-2.11.8-4.2,1.25-6.29l4.67,1C65,207.71,64.58,209.77,64.2,211.83Zm417.37-2.27c-.4-2.06-.84-4.1-1.3-6.14l4.66-1.06c.48,2.09.92,4.18,1.33,6.29ZM67.62,196.51,63,195.3q.82-3.11,1.72-6.18l4.59,1.35C68.71,192.47,68.15,194.49,67.62,196.51ZM478,194.29c-.56-2-1.14-4-1.75-6l4.56-1.4c.63,2.05,1.23,4.1,1.79,6.17ZM72.17,181.5l-4.52-1.56c.71-2,1.43-4.05,2.19-6.05l4.47,1.68C73.57,177.53,72.85,179.51,72.17,181.5Zm401.1-2.18q-1-3-2.19-5.89l4.45-1.73c.77,2,1.52,4,2.24,6ZM77.84,166.82l-4.39-1.89q1.27-3,2.63-5.87l4.33,2C79.52,163,78.67,164.89,77.84,166.82Zm389.63-2.06c-.85-1.91-1.72-3.8-2.62-5.69l4.31-2.06c.92,1.93,1.81,3.86,2.67,5.82ZM84.58,152.61l-4.23-2.21q1.49-2.85,3.05-5.66l4.17,2.33Q86,149.82,84.58,152.61Zm376-1.92c-1-1.85-2-3.68-3-5.49l4.14-2.37c1.07,1.85,2.1,3.72,3.11,5.61ZM92.35,138.94l-4-2.5c1.12-1.83,2.28-3.63,3.46-5.42l4,2.63Q94,136.28,92.35,138.94Zm8.76-13-3.85-2.81c1.25-1.74,2.54-3.45,3.85-5.15l3.78,2.93C103.6,122.53,102.35,124.21,101.11,125.91Zm9.69-12.36-3.64-3.09q2.07-2.44,4.22-4.83l3.55,3.18Q112.85,111.15,110.8,113.55Zm10.58-11.61L118,98.59q2.25-2.28,4.56-4.51l3.31,3.44C124.33,99,122.85,100.45,121.38,101.94Zm11.39-10.8-3.16-3.58c1.61-1.41,3.24-2.81,4.88-4.17l3,3.67Q135.13,89.07,132.77,91.14Zm52.44-34-2-4.34q2.91-1.34,5.86-2.57l1.85,4.4Q188.06,55.88,185.21,57.17Zm14.48-6L198,46.74q3-1.11,6.06-2.12l1.51,4.52C203.63,49.8,201.65,50.5,199.69,51.22Zm144.65-.79c-2-.7-4-1.37-6-2l1.47-4.54q3.06,1,6.09,2.07ZM214.61,46.34l-1.31-4.58q3.07-.88,6.2-1.67l1.17,4.62Q217.63,45.49,214.61,46.34Zm114.74-.62q-3-.82-6.08-1.56l1.12-4.64q3.14.75,6.22,1.6Zm-99.5-3.12-1-4.67c2.09-.43,4.2-.84,6.31-1.2l.82,4.69C234,41.79,231.89,42.18,229.85,42.6Zm84.22-.46q-3.07-.6-6.18-1.11l.78-4.71c2.11.34,4.22.73,6.32,1.13ZM245.32,40l-.62-4.73c2.12-.28,4.25-.52,6.38-.74l.48,4.75Q248.43,39.58,245.32,40Zm53.25-.28q-3.12-.37-6.25-.66l.43-4.75c2.14.19,4.26.41,6.38.66ZM261,38.54l-.27-4.77c2.13-.11,4.27-.21,6.42-.27l.13,4.77C265.13,38.33,263,38.42,261,38.54Zm22-.12c-2.08-.1-4.17-.16-6.27-.2l.07-4.77q3.22,0,6.42.2Z"/><path class="cls-7" d="M465.9,448.42Zm3.1-11.79a6,6,0,1,1-1.75,4.22,5.9,5.9,0,0,1,1.75-4.22Zm1.28-5.9a10.7,10.7,0,0,0-2.33,1,10,10,0,0,0-2.05,1.54.38.38,0,0,1-.44.05l-2.76-1.6h0a.67.67,0,0,0-.5,0,.66.66,0,0,0-.42.31v0l-1.95,3.37a.71.71,0,0,0,.25.94h0l2.75,1.58a.35.35,0,0,1,.17.4h0a10.37,10.37,0,0,0-.23,1.26,10.9,10.9,0,0,0-.08,1.29,10.69,10.69,0,0,0,.08,1.27,10,10,0,0,0,.23,1.26.36.36,0,0,1-.19.42l-2.75,1.58h0a.71.71,0,0,0-.25.94l2,3.39h0a.67.67,0,0,0,.42.32.64.64,0,0,0,.52-.07h0l2.76-1.59a.36.36,0,0,1,.43.06A10.38,10.38,0,0,0,468,450a10.2,10.2,0,0,0,2.35,1,.35.35,0,0,1,.26.35v3.19a.68.68,0,0,0,.69.69h3.92a.68.68,0,0,0,.68-.69v-3.19a.36.36,0,0,1,.28-.35,10.5,10.5,0,0,0,2.33-1,10.38,10.38,0,0,0,2.05-1.54.36.36,0,0,1,.45,0l2.75,1.58a.66.66,0,0,0,.53.07.68.68,0,0,0,.41-.32v0l1.94-3.37h0a.69.69,0,0,0,.08-.52.74.74,0,0,0-.32-.42l-2.77-1.59a.38.38,0,0,1-.17-.41h0a10,10,0,0,0,.23-1.26,10.69,10.69,0,0,0,.08-1.27,10.9,10.9,0,0,0-.08-1.29,10.37,10.37,0,0,0-.23-1.26.35.35,0,0,1,.19-.41l2.75-1.58a.74.74,0,0,0,.32-.42.69.69,0,0,0-.08-.52v0l-2-3.38h0a.66.66,0,0,0-.41-.31.7.7,0,0,0-.53.06h0l-2.76,1.6a.39.39,0,0,1-.45-.05,9.94,9.94,0,0,0-2-1.54,10.65,10.65,0,0,0-2.35-1,.37.37,0,0,1-.26-.35v-3.2a.7.7,0,0,0-.2-.48.72.72,0,0,0-.48-.2h-3.92a.72.72,0,0,0-.49.2.7.7,0,0,0-.2.48v3.2A.36.36,0,0,1,470.28,430.73Z"/><path class="cls-3" d="M320.28,122.48a2.69,2.69,0,0,1-.73-.18,137.79,137.79,0,0,0-13.75-4.61,2.82,2.82,0,0,1,1.5-5.43,140.88,140.88,0,0,1,14.33,4.8,2.82,2.82,0,0,1-1.35,5.42Z"/><path class="cls-3" d="M253.28,391A142.42,142.42,0,1,1,285,108a2.82,2.82,0,0,1-.63,5.6,136.67,136.67,0,1,0,60.37,21.9,2.82,2.82,0,1,1,3.12-4.7,142.4,142.4,0,0,1,62.84,134.58A142.42,142.42,0,0,1,253.28,391Z"/><path class="cls-3" d="M337.28,125.94a3.59,3.59,0,1,1-3.16-4A3.58,3.58,0,0,1,337.28,125.94Z"/><path class="cls-3" d="M314.38,230.62H222.2a7.52,7.52,0,0,0-7.51,7.52v64a7.51,7.51,0,0,0,7.51,7.51h92.18a7.5,7.5,0,0,0,7.5-7.51v-64A7.52,7.52,0,0,0,314.38,230.62ZM278,291.86H259.33l3.93-21.56a11.54,11.54,0,1,1,10.05,0Z"/><path class="cls-3" d="M238.52,221.3v-3a29.77,29.77,0,0,1,59.54,0v3h13.32v-3a43.1,43.1,0,0,0-86.19,0v3Z"/><line class="cls-8" x1="214.69" y1="261.99" x2="90.53" y2="261.99"/><line class="cls-8" x1="269.13" y1="309.69" x2="269.13" y2="436.28"/><line class="cls-8" x1="321.88" y1="264.33" x2="445.65" y2="264.33"/><line class="cls-8" x1="269.13" y1="175.21" x2="269.13" y2="62.06"/><polyline class="cls-8" points="214.69 247.57 180.38 247.57 180.38 120.93"/><polyline class="cls-8" points="214.69 284.01 157.84 284.01 157.84 424.64"/><polyline class="cls-8" points="294.38 309.69 294.38 344.64 416.64 344.64"/><polyline class="cls-8" points="317.79 231.45 358.77 231.45 358.77 200.8 452.99 200.8"/><polyline class="cls-8" points="294.38 184.01 294.38 148.67 399.39 148.67"/><polyline class="cls-8" points="240.68 185.21 240.68 156.6 126.68 156.6"/></svg>